<?xml version="1.0" encoding="utf-8"?>
<!-- Generator: Adobe Illustrator 25.2.0, SVG Export Plug-In . SVG Version: 6.00 Build 0)  -->
<svg version="1.1" id="Layer_1" xmlns="http://www.w3.org/2000/svg" xmlns:xlink="http://www.w3.org/1999/xlink" x="0px" y="0px"
	 viewBox="0 0 14400 14400" style="enable-background:new 0 0 14400 14400;" xml:space="preserve">
<g>
	<g>
		<path d="M6620.31,7139.63h-58.83v40.57h56.75v23.95h-56.75v80.37H6536v-168.83h84.31V7139.63z"/>
		<path d="M6701.38,7212.57l52.27,71.95h-31.16l-48.22-69.11h-4.59v69.11h-25.48v-168.83h29.85c22.31,0,38.42,4.19,48.33,12.57
			c10.93,9.33,16.4,21.65,16.4,36.96c0,11.96-3.43,22.24-10.28,30.84C6721.64,7204.66,6712.6,7210.16,6701.38,7212.57z
			 M6669.67,7193.21h8.09c24.13,0,36.19-9.22,36.19-27.66c0-17.28-11.74-25.92-35.21-25.92h-9.08V7193.21z"/>
		<path d="M6762.31,7199.34c0-23.76,8.71-44.18,26.13-61.23c17.35-17.06,38.2-25.59,62.55-25.59c24.06,0,44.68,8.6,61.89,25.81
			c17.28,17.21,25.91,37.87,25.91,62c0,24.27-8.68,44.87-26.02,61.78c-17.42,16.99-38.45,25.48-63.09,25.48
			c-21.8,0-41.37-7.54-58.72-22.63C6771.86,7248.25,6762.31,7226.38,6762.31,7199.34z M6788,7199.61c0,18.65,6.27,33.98,18.81,45.99
			c12.47,12.02,26.86,18.03,43.19,18.03c17.71,0,32.66-6.12,44.83-18.36c12.17-12.38,18.26-27.46,18.26-45.23
			c0-17.99-6.01-33.06-18.04-45.23c-11.96-12.24-26.75-18.36-44.39-18.36c-17.57,0-32.4,6.12-44.5,18.36
			C6794.05,7166.91,6788,7181.84,6788,7199.61z"/>
		<path d="M6967.83,7284.52v-180.31l123.12,128.81v-117.33h25.48v179.11l-123.12-128.48v118.2H6967.83z"/>
		<path d="M7200.13,7139.63v144.88h-25.48v-144.88h-38.82v-23.95h103v23.95H7200.13z"/>
		<path d="M7283.81,7115.69v168.83h-25.48v-168.83H7283.81z"/>
	</g>
	<path d="M7844.2,7159.71c-8.09,0-15.72,0.07-23.35-0.09c-0.91-0.02-2.28-1.05-2.6-1.92c-3.7-10.06-11.93-14.31-21.52-15.95
		c-7.15-1.22-14.54-1.06-22.25-1.54c0,6.76,0,12.74,0,18.71c0.3-0.13,0.61-0.26,0.91-0.39c0.85,1.89,2.39,3.76,2.43,5.67
		c0.5,25.52-11.73,42.62-35.86,50.51c-0.56,0.18-1.02,0.66-1.79,1.19c4.13,5.76,8.15,11.37,12.6,17.57c-4.57,0-8.47,0-12.87,0
		c0,6.18,0,11.98,0,18.16c3.36,0,6.94,0,10.85,0c0,7.43,0,14.49,0,21.79c-8.58,0-16.78,0-25.49,0c0-7.18,0-14.12,0-21.55
		c-3.91,0-7.34,0-11.15,0c0-6.13,0-11.77,0-17.88c2.43,0,4.9,0,7.51,0c-2.52-8.18-9.45-15.7-14.55-15.37c0,2.44,0,4.93,0,7.42
		c0,2.36,0,4.72,0,7.26c-8.75,0-17.09,0-25.67,0c0-24.45,0-48.49,0-73.02c8.39,0,16.74,0,25.61,0c0,11.47,0,23.03,0,35.02
		c10.48,0.3,20.48,0.89,29.92-3.27c13.91-6.13,16.76-17.5,15.06-30.2c-0.16-1.18-2.18-2.1-3.76-3.53c0-13.56,0-27.72,0-42.3
		c3.4,0,6.69-0.11,9.97,0.02c14.63,0.59,29.39,0.24,43.85,2.14c20.77,2.74,35.52,13.9,41.06,35.1
		C7843.61,7155.22,7843.79,7157.25,7844.2,7159.71z"/>
	<path d="M7554.09,7160.22c8.38,0,16.6,0,25.39,0c0,6.85,0,13.93,0,21.52c22.61,0,44.68,0,67.02,0c0,8.42,0,16.32,0,24.93
		c-22.24,0-44.29,0-66.71,0c0,9.26,0,17.81,0,26.7c-8.72,0-17.05,0-25.7,0C7554.09,7208.9,7554.09,7184.76,7554.09,7160.22z"/>
	<path d="M7670.45,7269.75c0,3.95,0,7.06,0,10.74c-3.21,0-6.2-0.04-9.19,0.01c-2.74,0.05-6.22-1.11-5.82,4.18
		c-54.12,0-107.71,0-161.31,0c0,0,0-0.02-0.01-0.03c11.23,0,22.46,0,33.69,0c9.73,0,19.47,0.07,29.2-0.1
		c1.14-0.02,2.27-1.32,3.4-2.03c-1.16-0.68-2.32-1.93-3.49-1.94c-12.91-0.14-25.82-0.09-39.12-0.09c0-3.35,0-6.44,0-10.13
		c13.88,0,27.85,0,42.25,0c0-7.64,0-14.7,0-22.27c-3.46,0-6.9,0-10.68,0c0-6.13,0-11.77,0-17.72c8.27,0,16.48,0,25.11,0
		c0,5.72,0,11.4,0,17.66c3.96,0,7.52,0,11.41,0c0.25,4.3,0.48,8.05,0.73,12.3c23,0,45.88,0,69.23,0c0.14,3.29,0.27,6.1,0.41,9.41
		C7660.86,7269.75,7665.4,7269.75,7670.45,7269.75z M7644.45,7280.64c0-3.74,0-6.97,0-10.27c-10.56,0-20.79,0-31.15,0
		c0,3.65,0,6.88,0,10.27C7623.71,7280.64,7633.84,7280.64,7644.45,7280.64z"/>
	<path d="M7678.65,7140.71c-23.51,0-46.24,0-69.39,0c0,6.35,0,12.34,0,18.67c-8.6,0-16.8,0-25.48,0c0-14.33,0-28.71,0-43.36
		c31.49,0,62.99,0,94.86,0C7678.65,7124.06,7678.65,7132.06,7678.65,7140.71z"/>
	<path d="M7863,7273.68c-10.4,0-19.78,0.09-29.16-0.11c-1.22-0.03-2.73-1.3-3.54-2.41c-3.86-5.25-7.63-10.58-11.23-16.02
		c-1.75-2.65-3.79-4.17-7.03-3.41c-5.22,1.23-8.58-0.79-11.15-5.43c-2.3-4.14-5.34-7.86-8.57-12.51c3.48,0,6.36,0,9.25,0
		c5.9,0,11.82-0.22,17.7,0.13c1.87,0.11,3.98,1.42,5.39,2.78c1.92,1.85,3.51,4.15,4.81,6.49c3.48,6.25,7.83,10.58,15.8,8.89
		c0.94-0.2,2.56,0.57,3.18,1.41C7853.18,7259.86,7857.75,7266.35,7863,7273.68z"/>
	<path d="M7427.87,7284.34c0-20.15,0-40.06,0-60.44c3.16-0.14,6.19-0.27,9.92-0.44c0-5.33-0.03-10.58,0.02-15.83
		c0.02-2.02-0.79-4.55,2.69-4.85c0.42-0.04,0.98-1.78,0.98-2.73c0.04-20.74,0.01-41.48-0.02-62.22c0-0.43-0.29-0.86-0.48-1.42
		c-8.28-0.42-16.57-0.83-24.85-1.25c0.01-0.8,0.02-1.59,0.02-2.39c9.21,0,18.42,0,28.12,0c0-6.48,0-11.71,0-17.46
		c6.39,0,12.29-0.32,18.15,0.06c13.16,0.86,26.38,1.49,39.42,3.33c9.07,1.28,17.24,5.58,24.76,13.32c-9.66,0-18.13,0-26.6,0
		c-0.16,0.54-0.33,1.09-0.49,1.63c1.39,0.68,2.75,1.87,4.18,1.95c6.68,0.39,13.39,0.26,20.05,0.8c1.93,0.16,4.48,1.45,5.49,3.02
		c12.08,18.81,8.37,47.43-8.93,61.58c-5.96,4.88-14.24,6.92-21.47,10.24c-1.05,0.48-2.17,0.84-3.78,1.45
		c2.52,3.65,4.68,6.79,7.28,10.57c-3.15,0-5.69,0-9.52,0c15.07,20.8,29.47,40.67,44.52,61.43c-5.74,0-10.75,0.02-15.76-0.01
		c-5.14-0.03-11.11,1.5-15.2-0.6c-4.04-2.08-6.24-7.81-9.17-11.99c-11.02-15.77-22-31.57-33.55-48.15c3.36-0.16,6.03-0.29,9.61-0.45
		c-3-3.25-3.21-8.57-9.44-7.72c-0.14,2.41-0.28,4.71-0.44,7.45c-3.31,0.16-6.51,0.32-10.1,0.5c0,20.16,0,40.22,0,60.62
		C7444.74,7284.34,7436.57,7284.34,7427.87,7284.34z M7467.02,7193.02c10.6-0.13,21.05,0.8,30.75-4.04
		c8.14-4.07,12.63-10.64,13.25-19.88c0.67-10.12-1.31-19.08-10.96-24.32c-10.36-5.62-21.7-5.24-33.03-4.87
		C7467.02,7157.76,7467.02,7175.17,7467.02,7193.02z"/>
	<path d="M7413.45,7138.91c-22.17,1.39-44.41,0.35-67.01,0.84c0,13.28,0,26.42,0,40.14c1.64,0,3.31-0.01,4.97,0
		c18.55,0.12,37.1,0.32,55.65,0.3c3.39,0,4.84,0.84,4.6,4.45c-0.27,4.04-0.06,8.11-0.06,12.16c0,6.45-0.49,6.97-7.25,7.04
		c-16.52,0.15-33.05,0.26-49.57,0.38c-4.01,0.03-8.03,0-12.48,0c0,4.85-0.36,9.22,0.09,13.5c0.53,4.96-1.42,6.52-6.04,5.81
		c-1.05-0.16-2.16,0.08-3.61,0.15c0,12.11,0,24.15,0,36.66c22.42,0,44.79,0,67.45,0c0,8.18,0,15.91,0,24c-30.95,0-61.85,0-92.96,0
		c0-20.15,0-40.17,0-60.55c3.17,0,6.09,0,9.83,0c0-5.7-0.03-11.08,0.01-16.47c0.01-1.9-0.66-4.2,2.55-4.49
		c0.47-0.04,1.12-1.71,1.12-2.62c0.02-20.9-0.03-41.79-0.08-62.69c0-0.28-0.22-0.56-0.45-1.11c-8.18-0.4-16.5-0.81-24.82-1.22
		c0-0.77,0-1.55,0-2.32c9.18-0.41,18.36-0.82,28.04-1.26c0-5.21,0-10.45,0-16.29c2.16,0,3.82,0,5.48,0c22.3,0,44.6-0.02,66.91,0.02
		c5.76,0.01,11.52,0.33,17.29,0.31c2.64-0.01,3.73,1.08,3.63,3.61c-0.01,0.31,0.02,0.62,0.02,0.94
		c-0.13,14.36,1.49,11.19-11.06,11.61c-5.57,0.19-11.14,0.54-16.71,0.82c-0.19,0.47-0.38,0.93-0.57,1.4
		c1.18,0.56,2.34,1.55,3.55,1.62c6.05,0.35,12.12,0.43,18.18,0.67c1.13,0.04,2.24,0.38,3.36,0.57
		C7413.49,7137.55,7413.47,7138.23,7413.45,7138.91z"/>
</g>
</svg>
